<svg width="24" height="24" xmlns="http://www.w3.org/2000/svg" viewBox="0 0 32 32">
    <path fill="#54adff" style="fill: var(--color1, #54adff)"
        d="M6.667 20.941l-0.707-0.707c-0.181 0.181-0.293 0.431-0.293 0.707v0h1zM20.941 6.667l0.707-0.707c-0.181-0.181-0.431-0.292-0.707-0.292s-0.526 0.112-0.707 0.292v0l0.707 0.707zM25.333 11.059l0.707 0.707c0.181-0.181 0.292-0.431 0.292-0.707s-0.112-0.526-0.292-0.707v0l-0.707 0.707zM11.059 25.333v1c0.276-0 0.526-0.112 0.707-0.293v0l-0.707-0.707zM6.667 25.333h-1c0 0.552 0.448 1 1 1v-1zM15.451 24.333c-0.552 0-1 0.448-1 1s0.448 1 1 1v0-2zM24.784 26.333c0.552 0 1-0.448 1-1s-0.448-1-1-1v0 2zM7.373 21.648l14.275-14.275-1.413-1.413-14.275 14.275 1.413 1.413zM20.235 7.373l4.392 4.392 1.413-1.413-4.392-4.392-1.413 1.413zM24.627 10.352l-14.275 14.275 1.413 1.413 14.275-14.275-1.413-1.413zM11.059 24.333h-4.392v2h4.392v-2zM7.667 25.333v-4.392h-2v4.392h2zM16.94 10.667l4.392 4.393 1.413-1.413-4.391-4.393-1.415 1.413zM15.451 26.333h9.333v-2h-9.333v2z">
    </path>
</svg>